<mxfile host="app.diagrams.net" modified="2023-10-03T23:34:03.892Z" agent="Mozilla/5.0 (Windows NT 10.0; Win64; x64) AppleWebKit/537.36 (KHTML, like Gecko) Chrome/117.0.0.0 Safari/537.36" etag="9rRyfuvKw7qCaNsx5OUn" version="22.0.2" type="github">
  <diagram name="Page-1" id="e7e014a7-5840-1c2e-5031-d8a46d1fe8dd">
    <mxGraphModel dx="1453" dy="782" grid="1" gridSize="10" guides="1" tooltips="1" connect="1" arrows="1" fold="1" page="1" pageScale="1" pageWidth="1169" pageHeight="826" background="none" math="0" shadow="0">
      <root>
        <mxCell id="0" />
        <mxCell id="1" parent="0" />
        <mxCell id="SZZFsIP21a665HcIkAiT-43" value="Journal&amp;nbsp;" style="swimlane;fontStyle=0;childLayout=stackLayout;horizontal=1;startSize=26;fillColor=none;horizontalStack=0;resizeParent=1;resizeParentMax=0;resizeLast=0;collapsible=1;marginBottom=0;whiteSpace=wrap;html=1;" vertex="1" parent="1">
          <mxGeometry x="210" y="340" width="200" height="200" as="geometry" />
        </mxCell>
        <mxCell id="SZZFsIP21a665HcIkAiT-44" value="&lt;div&gt;&amp;nbsp;Responsibilities: Store a list of entries, display entries, save/load entries to/from a file, get the promp from a list.&lt;/div&gt;&lt;div&gt;&lt;br&gt;&lt;/div&gt;&lt;div&gt;Behaviors: AddEntry(), DisplayEntries(), SaveToFile(), LoadFromFile().&lt;/div&gt;&lt;div&gt;&lt;br&gt;&lt;/div&gt;&lt;div&gt;Attributes: List entries.&lt;/div&gt;" style="text;strokeColor=none;fillColor=none;align=left;verticalAlign=top;spacingLeft=4;spacingRight=4;overflow=hidden;rotatable=0;points=[[0,0.5],[1,0.5]];portConstraint=eastwest;whiteSpace=wrap;html=1;" vertex="1" parent="SZZFsIP21a665HcIkAiT-43">
          <mxGeometry y="26" width="200" height="174" as="geometry" />
        </mxCell>
        <mxCell id="SZZFsIP21a665HcIkAiT-48" value="Entry&amp;nbsp;" style="swimlane;fontStyle=0;childLayout=stackLayout;horizontal=1;startSize=26;fillColor=none;horizontalStack=0;resizeParent=1;resizeParentMax=0;resizeLast=0;collapsible=1;marginBottom=0;whiteSpace=wrap;html=1;" vertex="1" parent="1">
          <mxGeometry x="470" y="330" width="170" height="190" as="geometry" />
        </mxCell>
        <mxCell id="SZZFsIP21a665HcIkAiT-49" value="&amp;nbsp;Responsibilities: Store individual journal entries.&lt;br&gt;&lt;br&gt;    Behaviors: CreateEntry().&lt;br&gt;&lt;br&gt;    Attributes:&lt;br&gt;        string prompt.&lt;br&gt;        string response.&lt;br&gt;        string date." style="text;strokeColor=none;fillColor=none;align=left;verticalAlign=top;spacingLeft=4;spacingRight=4;overflow=hidden;rotatable=0;points=[[0,0.5],[1,0.5]];portConstraint=eastwest;whiteSpace=wrap;html=1;" vertex="1" parent="SZZFsIP21a665HcIkAiT-48">
          <mxGeometry y="26" width="170" height="164" as="geometry" />
        </mxCell>
        <mxCell id="SZZFsIP21a665HcIkAiT-63" style="edgeStyle=orthogonalEdgeStyle;rounded=0;orthogonalLoop=1;jettySize=auto;html=1;entryX=0.5;entryY=0;entryDx=0;entryDy=0;exitX=0;exitY=0.5;exitDx=0;exitDy=0;" edge="1" parent="1" source="SZZFsIP21a665HcIkAiT-58" target="SZZFsIP21a665HcIkAiT-43">
          <mxGeometry relative="1" as="geometry" />
        </mxCell>
        <mxCell id="SZZFsIP21a665HcIkAiT-53" value="Program" style="swimlane;fontStyle=0;childLayout=stackLayout;horizontal=1;startSize=26;fillColor=none;horizontalStack=0;resizeParent=1;resizeParentMax=0;resizeLast=0;collapsible=1;marginBottom=0;whiteSpace=wrap;html=1;" vertex="1" parent="1">
          <mxGeometry x="350" y="80" width="210" height="160" as="geometry" />
        </mxCell>
        <mxCell id="SZZFsIP21a665HcIkAiT-58" value="&lt;div&gt;&amp;nbsp;Responsibilities: Manage the overall flow of the program, display menu, and handle user choices.&lt;/div&gt;&lt;div&gt;&lt;br&gt;&lt;/div&gt;&lt;div&gt;Behaviors: DisplayMenu(), HandleChoice(), ExitProgram().&lt;/div&gt;&lt;div&gt;&amp;nbsp;&lt;/div&gt;&lt;div&gt;Attributes: N/A&lt;/div&gt;" style="text;strokeColor=none;fillColor=none;align=left;verticalAlign=top;spacingLeft=4;spacingRight=4;overflow=hidden;rotatable=0;points=[[0,0.5],[1,0.5]];portConstraint=eastwest;whiteSpace=wrap;html=1;" vertex="1" parent="SZZFsIP21a665HcIkAiT-53">
          <mxGeometry y="26" width="210" height="134" as="geometry" />
        </mxCell>
        <mxCell id="SZZFsIP21a665HcIkAiT-64" style="edgeStyle=orthogonalEdgeStyle;rounded=0;orthogonalLoop=1;jettySize=auto;html=1;exitX=1;exitY=0.5;exitDx=0;exitDy=0;entryX=0.5;entryY=0;entryDx=0;entryDy=0;" edge="1" parent="1" source="SZZFsIP21a665HcIkAiT-58" target="SZZFsIP21a665HcIkAiT-48">
          <mxGeometry relative="1" as="geometry" />
        </mxCell>
      </root>
    </mxGraphModel>
  </diagram>
</mxfile>
